<?xml version="1.0" standalone="no"?>
<!DOCTYPE svg PUBLIC "-//W3C//DTD SVG 20010904//EN"
 "http://www.w3.org/TR/2001/REC-SVG-20010904/DTD/svg10.dtd">
<svg version="1.0" xmlns="http://www.w3.org/2000/svg"
 width="600.00000pt" height="300.00000pt" viewBox="0 0 400.000000 300.000000"
 preserveAspectRatio="xMidYMid meet">
<metadata>
Created by potrace 1.16, written by Peter Selinger 2001-2019
</metadata>
<g transform="translate(0.000000,300.000000) scale(0.100000,-0.100000)"
fill="#000000" stroke="none">
<path d="M1640 1734 c-61 -26 -110 -86 -110 -134 0 -34 37 -25 56 15 31 66
105 98 165 72 19 -8 50 -31 68 -51 19 -20 41 -36 49 -36 8 0 36 20 63 44 73
66 151 67 203 5 32 -38 40 -68 31 -117 -5 -30 -32 -62 -151 -182 l-143 -145
-71 70 c-66 66 -71 68 -87 52 -17 -16 -13 -22 70 -105 l87 -87 161 160 c89 88
167 174 175 192 31 71 4 180 -54 222 -40 28 -105 45 -146 37 -19 -4 -58 -22
-87 -42 l-52 -35 -26 25 c-55 53 -135 69 -201 40z"/>
<path d="M1387 1634 c-10 -10 -8 -336 2 -352 5 -8 17 -12 27 -10 16 3 19 14
22 81 l3 77 218 0 c182 0 221 3 231 15 10 12 10 18 0 30 -10 12 -49 15 -231
15 l-218 0 -3 73 c-3 64 -5 72 -23 75 -12 2 -24 0 -28 -4z"/>
<path d="M2327 1634 c-4 -4 -7 -38 -7 -76 0 -65 -1 -68 -24 -68 -33 0 -53 -25
-36 -45 7 -8 23 -15 36 -15 23 0 24 -3 24 -69 0 -72 14 -99 45 -87 13 5 15 31
13 183 -3 171 -4 178 -23 181 -12 2 -24 0 -28 -4z"/>
</g>
</svg>
